<svg xmlns="http://www.w3.org/2000/svg" width="185.551" height="185.721" viewBox="0 0 185.551 185.721">
  <path id="path492" d="M160.349,71.739A92.861,92.861,0,1,0,253.124,164.6,92.818,92.818,0,0,0,160.349,71.739Zm0,8.483A84.378,84.378,0,1,1,75.971,164.6a84.378,84.378,0,0,1,84.378-84.377Zm-59.357,97.6h21.482l17.047-46.137h6.751l-8.489,46.287h5.125c6.047-16.588,16.2-46.287,16.2-46.287h7.517l-8.982,46.127,5.621.009,16.3-46.137h6.589l-1.123,8.348L195.121,108.3H137.943v-2.883H124.558m73.926,0-23.544,72.554h44.686a230.79,230.79,0,0,1-6.379-35.4c-.75-7.864-.328-15.817-.674-23.7-.2-4.475-.634-8.972-.634-13.454H198.485m-49.491,18.9H138.9v-10.25h10.09v10.25m19.22-10.25v10.25h-10.09v-10.25m29.47,10.25H177.5v-10.25h10.09v10.25m-87.449,61.663v5.606H220.267v-5.606H100.144m50.932,14.9v3.844h18.259v-3.844H151.076m0,13.133v3.844h18.259v-3.844H151.076m0,13.133v3.844h18.259v-3.844Z" transform="translate(-67.573 -71.739)" fill="#fff"/>
</svg>
